<mxfile host="app.diagrams.net" modified="2022-03-20T16:12:31.152Z" agent="5.0 (Macintosh; Intel Mac OS X 10_15_7) AppleWebKit/537.36 (KHTML, like Gecko) Chrome/99.0.4844.74 Safari/537.36" etag="PHIfOe_fU6JMkY5GCmbX" version="17.1.3" type="github">
  <diagram id="dww7MRhnpniaUA8ngxxx" name="Page-1">
    <mxGraphModel dx="2066" dy="1186" grid="1" gridSize="10" guides="1" tooltips="1" connect="1" arrows="1" fold="1" page="1" pageScale="1" pageWidth="827" pageHeight="1169" math="0" shadow="0">
      <root>
        <mxCell id="0" />
        <mxCell id="1" parent="0" />
        <mxCell id="ITiKIolI_d2dZ91DUdzG-5" value="&lt;b&gt;Command&lt;/b&gt;" style="rounded=0;whiteSpace=wrap;html=1;fillColor=#dae8fc;strokeColor=#6c8ebf;" parent="1" vertex="1">
          <mxGeometry x="70" y="240" width="140" height="60" as="geometry" />
        </mxCell>
        <mxCell id="ITiKIolI_d2dZ91DUdzG-7" value="+ name : String&lt;br&gt;+ args : list" style="rounded=0;whiteSpace=wrap;html=1;fillColor=#dae8fc;strokeColor=#6c8ebf;align=left;" parent="1" vertex="1">
          <mxGeometry x="70" y="300" width="140" height="60" as="geometry" />
        </mxCell>
        <mxCell id="ITiKIolI_d2dZ91DUdzG-8" value="&lt;b&gt;CommandLine&amp;nbsp;&lt;/b&gt;" style="rounded=0;whiteSpace=wrap;html=1;fillColor=#dae8fc;strokeColor=#6c8ebf;" parent="1" vertex="1">
          <mxGeometry x="250" y="40" width="200" height="60" as="geometry" />
        </mxCell>
        <mxCell id="ITiKIolI_d2dZ91DUdzG-9" value="&lt;div&gt;&lt;span&gt;- env : Environment&lt;/span&gt;&lt;/div&gt;" style="rounded=0;whiteSpace=wrap;html=1;fillColor=#dae8fc;strokeColor=#6c8ebf;align=left;" parent="1" vertex="1">
          <mxGeometry x="250" y="100" width="200" height="60" as="geometry" />
        </mxCell>
        <mxCell id="ITiKIolI_d2dZ91DUdzG-10" value="&lt;i&gt;+ getEnv() : Environment&lt;br&gt;+ run()&lt;br&gt;&lt;/i&gt;" style="rounded=0;whiteSpace=wrap;html=1;fillColor=#dae8fc;strokeColor=#6c8ebf;align=left;" parent="1" vertex="1">
          <mxGeometry x="250" y="160" width="200" height="60" as="geometry" />
        </mxCell>
        <mxCell id="ITiKIolI_d2dZ91DUdzG-11" value="&lt;b&gt;Environment&lt;/b&gt;" style="rounded=0;whiteSpace=wrap;html=1;fillColor=#dae8fc;strokeColor=#6c8ebf;" parent="1" vertex="1">
          <mxGeometry x="560" y="50" width="240" height="40" as="geometry" />
        </mxCell>
        <mxCell id="ITiKIolI_d2dZ91DUdzG-12" value="- vars : Map &amp;lt;String, Type&amp;gt;&amp;nbsp;&amp;nbsp;" style="rounded=0;whiteSpace=wrap;html=1;fillColor=#dae8fc;strokeColor=#6c8ebf;align=left;" parent="1" vertex="1">
          <mxGeometry x="560" y="90" width="240" height="50" as="geometry" />
        </mxCell>
        <mxCell id="ITiKIolI_d2dZ91DUdzG-13" value="+ getVar(name : String) : Type&lt;br&gt;+ setVar(name : String, value :&amp;nbsp; Type)" style="rounded=0;whiteSpace=wrap;html=1;fillColor=#dae8fc;strokeColor=#6c8ebf;align=left;" parent="1" vertex="1">
          <mxGeometry x="560" y="140" width="240" height="60" as="geometry" />
        </mxCell>
        <mxCell id="ITiKIolI_d2dZ91DUdzG-15" value="" style="endArrow=none;html=1;rounded=0;exitX=1;exitY=0.5;exitDx=0;exitDy=0;startArrow=none;" parent="1" source="ITiKIolI_d2dZ91DUdzG-24" edge="1">
          <mxGeometry width="50" height="50" relative="1" as="geometry">
            <mxPoint x="540" y="310" as="sourcePoint" />
            <mxPoint x="500" y="130" as="targetPoint" />
          </mxGeometry>
        </mxCell>
        <mxCell id="ITiKIolI_d2dZ91DUdzG-16" value="" style="endArrow=none;html=1;rounded=0;" parent="1" edge="1">
          <mxGeometry width="50" height="50" relative="1" as="geometry">
            <mxPoint x="500" y="130" as="sourcePoint" />
            <mxPoint x="500" y="20" as="targetPoint" />
          </mxGeometry>
        </mxCell>
        <mxCell id="ITiKIolI_d2dZ91DUdzG-17" value="" style="endArrow=none;html=1;rounded=0;" parent="1" edge="1">
          <mxGeometry width="50" height="50" relative="1" as="geometry">
            <mxPoint x="500" y="20" as="sourcePoint" />
            <mxPoint x="680" y="20" as="targetPoint" />
          </mxGeometry>
        </mxCell>
        <mxCell id="h1KJazxnuTFb7qEc0JPS-2" style="edgeStyle=orthogonalEdgeStyle;rounded=0;orthogonalLoop=1;jettySize=auto;html=1;exitX=0.25;exitY=1;exitDx=0;exitDy=0;" edge="1" parent="1" source="ITiKIolI_d2dZ91DUdzG-19" target="ITiKIolI_d2dZ91DUdzG-20">
          <mxGeometry relative="1" as="geometry" />
        </mxCell>
        <mxCell id="ITiKIolI_d2dZ91DUdzG-19" value="&lt;b&gt;Parser&lt;/b&gt;" style="rounded=0;whiteSpace=wrap;html=1;fillColor=#dae8fc;strokeColor=#6c8ebf;" parent="1" vertex="1">
          <mxGeometry x="490" y="320" width="200" height="60" as="geometry" />
        </mxCell>
        <mxCell id="ITiKIolI_d2dZ91DUdzG-20" value="+ parse (input : String) :&amp;nbsp; list" style="rounded=0;whiteSpace=wrap;html=1;fillColor=#dae8fc;strokeColor=#6c8ebf;align=left;" parent="1" vertex="1">
          <mxGeometry x="490" y="380" width="200" height="60" as="geometry" />
        </mxCell>
        <mxCell id="ITiKIolI_d2dZ91DUdzG-23" value="" style="endArrow=none;html=1;rounded=0;exitX=0.5;exitY=0;exitDx=0;exitDy=0;" parent="1" source="ITiKIolI_d2dZ91DUdzG-11" edge="1">
          <mxGeometry width="50" height="50" relative="1" as="geometry">
            <mxPoint x="540" y="310" as="sourcePoint" />
            <mxPoint x="680" y="20" as="targetPoint" />
          </mxGeometry>
        </mxCell>
        <mxCell id="ITiKIolI_d2dZ91DUdzG-24" value="" style="rhombus;whiteSpace=wrap;html=1;" parent="1" vertex="1">
          <mxGeometry x="450" y="120" width="20" height="20" as="geometry" />
        </mxCell>
        <mxCell id="ITiKIolI_d2dZ91DUdzG-25" value="" style="endArrow=none;html=1;rounded=0;exitX=1;exitY=0.5;exitDx=0;exitDy=0;" parent="1" source="ITiKIolI_d2dZ91DUdzG-9" target="ITiKIolI_d2dZ91DUdzG-24" edge="1">
          <mxGeometry width="50" height="50" relative="1" as="geometry">
            <mxPoint x="450" y="130" as="sourcePoint" />
            <mxPoint x="500" y="130" as="targetPoint" />
          </mxGeometry>
        </mxCell>
        <mxCell id="h1KJazxnuTFb7qEc0JPS-7" value="&lt;b&gt;Operation&lt;/b&gt;" style="rounded=0;whiteSpace=wrap;html=1;fillColor=#dae8fc;strokeColor=#6c8ebf;" vertex="1" parent="1">
          <mxGeometry x="245" y="440" width="210" height="60" as="geometry" />
        </mxCell>
        <mxCell id="h1KJazxnuTFb7qEc0JPS-8" value="- commands Map &amp;lt;String, Command&amp;gt;" style="rounded=0;whiteSpace=wrap;html=1;fillColor=#dae8fc;strokeColor=#6c8ebf;align=left;" vertex="1" parent="1">
          <mxGeometry x="245" y="500" width="210" height="60" as="geometry" />
        </mxCell>
        <mxCell id="h1KJazxnuTFb7qEc0JPS-9" value="+ execute(Command) : String&lt;br&gt;+ getCommand(name : String) Command" style="rounded=0;whiteSpace=wrap;html=1;fillColor=#dae8fc;strokeColor=#6c8ebf;align=left;" vertex="1" parent="1">
          <mxGeometry x="245" y="560" width="210" height="60" as="geometry" />
        </mxCell>
        <mxCell id="h1KJazxnuTFb7qEc0JPS-15" value="" style="endArrow=classic;html=1;rounded=0;entryX=0.362;entryY=0;entryDx=0;entryDy=0;entryPerimeter=0;" edge="1" parent="1" target="h1KJazxnuTFb7qEc0JPS-7">
          <mxGeometry width="50" height="50" relative="1" as="geometry">
            <mxPoint x="320" y="400" as="sourcePoint" />
            <mxPoint x="440" y="380" as="targetPoint" />
          </mxGeometry>
        </mxCell>
        <mxCell id="h1KJazxnuTFb7qEc0JPS-16" value="" style="endArrow=none;html=1;rounded=0;" edge="1" parent="1">
          <mxGeometry width="50" height="50" relative="1" as="geometry">
            <mxPoint x="320" y="400" as="sourcePoint" />
            <mxPoint x="140" y="400" as="targetPoint" />
          </mxGeometry>
        </mxCell>
        <mxCell id="h1KJazxnuTFb7qEc0JPS-17" value="" style="endArrow=none;html=1;rounded=0;exitX=0.5;exitY=1;exitDx=0;exitDy=0;" edge="1" parent="1" source="ITiKIolI_d2dZ91DUdzG-7">
          <mxGeometry width="50" height="50" relative="1" as="geometry">
            <mxPoint x="390" y="430" as="sourcePoint" />
            <mxPoint x="140" y="400" as="targetPoint" />
          </mxGeometry>
        </mxCell>
        <mxCell id="h1KJazxnuTFb7qEc0JPS-19" value="&lt;b&gt;Cat&lt;br&gt;&lt;/b&gt;" style="rounded=0;whiteSpace=wrap;html=1;fillColor=#dae8fc;strokeColor=#6c8ebf;" vertex="1" parent="1">
          <mxGeometry x="20" y="410" width="40" height="40" as="geometry" />
        </mxCell>
        <mxCell id="h1KJazxnuTFb7qEc0JPS-20" value="&lt;b&gt;Wc&lt;br&gt;&lt;/b&gt;" style="rounded=0;whiteSpace=wrap;html=1;fillColor=#dae8fc;strokeColor=#6c8ebf;" vertex="1" parent="1">
          <mxGeometry x="60" y="130" width="40" height="40" as="geometry" />
        </mxCell>
        <mxCell id="h1KJazxnuTFb7qEc0JPS-21" value="&lt;b&gt;Echo&lt;br&gt;&lt;/b&gt;" style="rounded=0;whiteSpace=wrap;html=1;fillColor=#dae8fc;strokeColor=#6c8ebf;" vertex="1" parent="1">
          <mxGeometry x="110" y="130" width="40" height="40" as="geometry" />
        </mxCell>
        <mxCell id="h1KJazxnuTFb7qEc0JPS-22" value="&lt;b&gt;Exit&lt;br&gt;&lt;/b&gt;" style="rounded=0;whiteSpace=wrap;html=1;fillColor=#dae8fc;strokeColor=#6c8ebf;" vertex="1" parent="1">
          <mxGeometry x="160" y="130" width="40" height="40" as="geometry" />
        </mxCell>
        <mxCell id="h1KJazxnuTFb7qEc0JPS-23" value="&lt;b&gt;Pwd&lt;br&gt;&lt;/b&gt;" style="rounded=0;whiteSpace=wrap;html=1;fillColor=#dae8fc;strokeColor=#6c8ebf;" vertex="1" parent="1">
          <mxGeometry x="20" y="200" width="40" height="40" as="geometry" />
        </mxCell>
        <mxCell id="h1KJazxnuTFb7qEc0JPS-24" value="" style="endArrow=none;dashed=1;html=1;rounded=0;exitX=0.5;exitY=1;exitDx=0;exitDy=0;" edge="1" parent="1" source="h1KJazxnuTFb7qEc0JPS-23">
          <mxGeometry width="50" height="50" relative="1" as="geometry">
            <mxPoint x="350" y="250" as="sourcePoint" />
            <mxPoint x="40" y="280" as="targetPoint" />
          </mxGeometry>
        </mxCell>
        <mxCell id="h1KJazxnuTFb7qEc0JPS-25" value="" style="endArrow=none;dashed=1;html=1;rounded=0;exitX=-0.007;exitY=0.642;exitDx=0;exitDy=0;exitPerimeter=0;" edge="1" parent="1" source="ITiKIolI_d2dZ91DUdzG-5">
          <mxGeometry width="50" height="50" relative="1" as="geometry">
            <mxPoint x="70" y="300" as="sourcePoint" />
            <mxPoint x="40" y="280" as="targetPoint" />
          </mxGeometry>
        </mxCell>
        <mxCell id="h1KJazxnuTFb7qEc0JPS-26" value="" style="triangle;whiteSpace=wrap;html=1;" vertex="1" parent="1">
          <mxGeometry x="60" y="270" width="10" height="20" as="geometry" />
        </mxCell>
        <mxCell id="h1KJazxnuTFb7qEc0JPS-27" value="" style="endArrow=none;dashed=1;html=1;rounded=0;exitX=0.5;exitY=0;exitDx=0;exitDy=0;" edge="1" parent="1" source="h1KJazxnuTFb7qEc0JPS-19">
          <mxGeometry width="50" height="50" relative="1" as="geometry">
            <mxPoint x="340" y="250" as="sourcePoint" />
            <mxPoint x="40" y="320" as="targetPoint" />
          </mxGeometry>
        </mxCell>
        <mxCell id="h1KJazxnuTFb7qEc0JPS-28" value="" style="endArrow=none;dashed=1;html=1;rounded=0;startArrow=none;" edge="1" parent="1" source="h1KJazxnuTFb7qEc0JPS-29">
          <mxGeometry width="50" height="50" relative="1" as="geometry">
            <mxPoint x="40" y="320" as="sourcePoint" />
            <mxPoint x="70" y="320" as="targetPoint" />
          </mxGeometry>
        </mxCell>
        <mxCell id="h1KJazxnuTFb7qEc0JPS-29" value="" style="triangle;whiteSpace=wrap;html=1;" vertex="1" parent="1">
          <mxGeometry x="60" y="310" width="10" height="20" as="geometry" />
        </mxCell>
        <mxCell id="h1KJazxnuTFb7qEc0JPS-30" value="" style="endArrow=none;dashed=1;html=1;rounded=0;" edge="1" parent="1" target="h1KJazxnuTFb7qEc0JPS-29">
          <mxGeometry width="50" height="50" relative="1" as="geometry">
            <mxPoint x="40" y="320" as="sourcePoint" />
            <mxPoint x="70" y="320" as="targetPoint" />
          </mxGeometry>
        </mxCell>
        <mxCell id="h1KJazxnuTFb7qEc0JPS-31" value="" style="endArrow=none;dashed=1;html=1;rounded=0;entryX=0.5;entryY=1;entryDx=0;entryDy=0;startArrow=none;" edge="1" parent="1" source="h1KJazxnuTFb7qEc0JPS-38" target="h1KJazxnuTFb7qEc0JPS-20">
          <mxGeometry width="50" height="50" relative="1" as="geometry">
            <mxPoint x="80" y="240" as="sourcePoint" />
            <mxPoint x="400" y="240" as="targetPoint" />
          </mxGeometry>
        </mxCell>
        <mxCell id="h1KJazxnuTFb7qEc0JPS-38" value="" style="triangle;whiteSpace=wrap;html=1;rotation=90;" vertex="1" parent="1">
          <mxGeometry x="72.5" y="220" width="15" height="20" as="geometry" />
        </mxCell>
        <mxCell id="h1KJazxnuTFb7qEc0JPS-41" value="" style="endArrow=none;dashed=1;html=1;rounded=0;entryX=0.5;entryY=1;entryDx=0;entryDy=0;" edge="1" parent="1" target="h1KJazxnuTFb7qEc0JPS-38">
          <mxGeometry width="50" height="50" relative="1" as="geometry">
            <mxPoint x="80" y="240" as="sourcePoint" />
            <mxPoint x="80" y="170" as="targetPoint" />
          </mxGeometry>
        </mxCell>
        <mxCell id="h1KJazxnuTFb7qEc0JPS-42" value="" style="triangle;whiteSpace=wrap;html=1;rotation=90;" vertex="1" parent="1">
          <mxGeometry x="122.5" y="220" width="15" height="20" as="geometry" />
        </mxCell>
        <mxCell id="h1KJazxnuTFb7qEc0JPS-44" value="" style="endArrow=none;dashed=1;html=1;rounded=0;entryX=0.5;entryY=1;entryDx=0;entryDy=0;startArrow=none;" edge="1" parent="1">
          <mxGeometry width="50" height="50" relative="1" as="geometry">
            <mxPoint x="129.5" y="222.5" as="sourcePoint" />
            <mxPoint x="129.5" y="170" as="targetPoint" />
          </mxGeometry>
        </mxCell>
        <mxCell id="h1KJazxnuTFb7qEc0JPS-45" value="" style="endArrow=none;dashed=1;html=1;rounded=0;entryX=0.5;entryY=1;entryDx=0;entryDy=0;startArrow=none;" edge="1" parent="1">
          <mxGeometry width="50" height="50" relative="1" as="geometry">
            <mxPoint x="179.5" y="222.5" as="sourcePoint" />
            <mxPoint x="179.5" y="170" as="targetPoint" />
          </mxGeometry>
        </mxCell>
        <mxCell id="h1KJazxnuTFb7qEc0JPS-46" value="" style="triangle;whiteSpace=wrap;html=1;rotation=90;" vertex="1" parent="1">
          <mxGeometry x="172.5" y="220" width="15" height="20" as="geometry" />
        </mxCell>
        <mxCell id="h1KJazxnuTFb7qEc0JPS-47" value="" style="endArrow=none;html=1;rounded=0;entryX=0.75;entryY=1;entryDx=0;entryDy=0;startArrow=none;" edge="1" parent="1" source="h1KJazxnuTFb7qEc0JPS-52" target="ITiKIolI_d2dZ91DUdzG-10">
          <mxGeometry width="50" height="50" relative="1" as="geometry">
            <mxPoint x="400" y="280" as="sourcePoint" />
            <mxPoint x="410" y="250" as="targetPoint" />
          </mxGeometry>
        </mxCell>
        <mxCell id="h1KJazxnuTFb7qEc0JPS-48" value="" style="endArrow=none;html=1;rounded=0;" edge="1" parent="1">
          <mxGeometry width="50" height="50" relative="1" as="geometry">
            <mxPoint x="590" y="280" as="sourcePoint" />
            <mxPoint x="400" y="280" as="targetPoint" />
          </mxGeometry>
        </mxCell>
        <mxCell id="h1KJazxnuTFb7qEc0JPS-50" value="" style="endArrow=none;html=1;rounded=0;entryX=0.5;entryY=0;entryDx=0;entryDy=0;" edge="1" parent="1" target="ITiKIolI_d2dZ91DUdzG-19">
          <mxGeometry width="50" height="50" relative="1" as="geometry">
            <mxPoint x="590" y="280" as="sourcePoint" />
            <mxPoint x="410" y="250" as="targetPoint" />
          </mxGeometry>
        </mxCell>
        <mxCell id="h1KJazxnuTFb7qEc0JPS-56" value="" style="rhombus;whiteSpace=wrap;html=1;" vertex="1" parent="1">
          <mxGeometry x="350" y="220" width="20" height="20" as="geometry" />
        </mxCell>
        <mxCell id="h1KJazxnuTFb7qEc0JPS-52" value="" style="rhombus;whiteSpace=wrap;html=1;" vertex="1" parent="1">
          <mxGeometry x="390" y="220" width="20" height="20" as="geometry" />
        </mxCell>
        <mxCell id="h1KJazxnuTFb7qEc0JPS-57" value="" style="endArrow=none;html=1;rounded=0;" edge="1" parent="1">
          <mxGeometry width="50" height="50" relative="1" as="geometry">
            <mxPoint x="400" y="280" as="sourcePoint" />
            <mxPoint x="400" y="240" as="targetPoint" />
          </mxGeometry>
        </mxCell>
        <mxCell id="h1KJazxnuTFb7qEc0JPS-58" value="" style="endArrow=none;html=1;rounded=0;exitX=0.5;exitY=1;exitDx=0;exitDy=0;entryX=0.548;entryY=-0.033;entryDx=0;entryDy=0;entryPerimeter=0;" edge="1" parent="1" source="h1KJazxnuTFb7qEc0JPS-56" target="h1KJazxnuTFb7qEc0JPS-7">
          <mxGeometry width="50" height="50" relative="1" as="geometry">
            <mxPoint x="360" y="320" as="sourcePoint" />
            <mxPoint x="410" y="270" as="targetPoint" />
          </mxGeometry>
        </mxCell>
      </root>
    </mxGraphModel>
  </diagram>
</mxfile>
